<svg xmlns="http://www.w3.org/2000/svg" viewBox="0 0 1000 1000"><metadata>   Svg Vector Icons : http:&#x2F;&#x2F;www.onlinewebfonts.com&#x2F;icon </metadata><path d="M500 10C229.4 10 10 229.4 10 500c0 270.6 219.4 490 490 490 270.6 0 490-219.4 490-490C990 229.4 770.6 10 500 10zM867.5 500c0 203-164.5 367.5-367.5 367.5C297 867.5 132.5 703 132.5 500c0-203 164.5-367.5 367.5-367.5C703 132.5 867.5 297 867.5 500z"/><path d="M456.7 543.3L326.8 413.4 240.1 500l129.9 129.9 86.6 86.6 86.6-86.6 259.9-259.9 -86.6-86.6L456.7 543.3z"/></svg>